<svg width="34" height="34" viewBox="0 0 34 34" fill="none" xmlns="http://www.w3.org/2000/svg">
<path d="M24.6499 33.5301H8.8999C8.5899 33.3401 8.21989 33.3801 7.88989 33.3001C3.32989 32.2601 0.23998 28.4101 0.22998 23.7301C0.22998 19.2001 0.22998 14.6601 0.22998 10.1301C0.22998 9.31008 0.320029 8.49008 0.530029 7.70008C1.62003 3.42008 5.38005 0.420082 9.80005 0.380082C14.48 0.340082 19.1501 0.380082 23.8301 0.380082C24.3401 0.380082 24.8401 0.430082 25.3401 0.520082C29.2001 1.18008 32.2699 4.11008 33.1399 7.94008C33.2299 8.33008 33.2099 8.74008 33.3899 9.11008V24.8501C33.2499 24.9401 33.29 25.1001 33.27 25.2301C32.69 29.2101 29.7501 32.3901 25.8201 33.2801C25.4301 33.3701 25.0199 33.3401 24.6499 33.5301ZM16.78 28.9301C19.64 28.9301 22.5001 28.8901 25.3601 28.9401C27.1301 28.9701 28.35 27.3801 27.75 25.6701C27.17 24.0201 26.6699 22.3401 26.1399 20.6801C25.3999 18.3901 23.3701 17.3701 21.1001 18.1401C19.8901 18.5601 18.6401 18.7801 17.3601 18.8301C15.6301 18.8901 13.95 18.6401 12.3 18.0801C10.28 17.4001 8.20003 18.4601 7.53003 20.4901C6.95003 22.2501 6.39008 24.0201 5.83008 25.7901C5.73008 26.1101 5.65995 26.4401 5.69995 26.7801C5.83995 28.0601 6.80011 28.9301 8.11011 28.9301C11.0001 28.9301 13.9 28.9301 16.79 28.9301H16.78ZM22.6499 10.8001C22.6499 7.56008 20.03 4.95008 16.8 4.95008C13.57 4.95008 10.96 7.57008 10.96 10.8101C10.96 14.0401 13.5901 16.6701 16.8101 16.6601C20.0401 16.6601 22.6499 14.0301 22.6499 10.8001Z" fill="white"/>
</svg>
