<svg width="84" height="46" viewBox="0 0 84 46" fill="none" xmlns="http://www.w3.org/2000/svg">
<path d="M42.48 2.74V15.87C44.8 15.94 47.0901 15.87 49.3901 15.91C49.8901 16.73 50.3702 17.51 50.9202 18.41H15.8901V15.95H29.0801C29.1801 14.82 29.1201 13.77 29.1301 12.71C29.1301 11.67 29.1301 10.63 29.1301 9.58C29.1301 8.51 29.1301 7.44 29.1301 6.37V0H56.1702C65.2902 15.08 74.4602 30.21 83.6702 45.44H68.8701C60.1401 31.2 51.3901 16.93 42.6501 2.66C42.5901 2.68 42.53 2.7 42.48 2.72V2.74Z" fill="white"/>
<path d="M0 0.00976562H13.1902V45.4498H0V0.00976562Z" fill="white"/>
<path d="M55.31 25.5601C55.87 26.4338 56.43 27.3169 57.07 28.3141H42.4699V44.4301H29.1801V28.3141H15.9201C15.8101 27.3739 15.87 26.5002 15.86 25.5601H55.2899H55.31Z" fill="white"/>
<path d="M15.8501 23.2502V20.6802H52.3101C52.7901 21.4702 53.3001 22.3002 53.8701 23.2502H15.8501Z" fill="white"/>
</svg>
