<svg width="166" height="63" viewBox="0 0 166 63" fill="none" xmlns="http://www.w3.org/2000/svg">
<path d="M49.3201 25.2102L39.0901 53.3802H42.53L46.6001 42.6202H59.24L63.3 53.3802H66.74L56.51 25.2102H49.3201ZM47.49 40.0302L52.3999 26.1102H53.3801L58.29 40.0302H47.48H47.49Z" fill="white"/>
<path d="M94.3601 38.9201L85.96 36.9501C82.25 36.0901 80.73 34.4001 80.73 32.1501C80.73 28.9501 83.37 27.3901 88.23 27.3901C94.44 27.3901 97.6599 29.8101 97.6599 34.7001H101.01C101.01 28.4601 96.63 24.8101 88.23 24.8101C81.22 24.8101 77.3701 27.4001 77.3701 32.2801C77.3701 35.6901 79.4701 38.2701 84.3401 39.4201L92.8301 41.4301C96.8501 42.3701 98.5901 44.3001 98.5901 46.7301C98.5901 50.2201 95.9099 51.9801 90.1899 51.9801C83.0399 51.9801 79.2 49.1501 79.2 43.3601H75.8501C75.8501 50.5801 80.8099 53.7901 90.1399 53.7901C98.1799 53.7901 101.93 51.6901 101.93 46.6001C101.93 42.8201 99.3801 40.1101 94.3401 38.9201H94.3601Z" fill="white"/>
<path d="M127.03 38.5502H108.31V25.2102H105.01V53.3802H108.31V41.1402H127.03V53.3802H130.38V25.2102H127.03V38.5502Z" fill="white"/>
<path d="M150.79 25.2102H143.6L133.37 53.3802H136.81L140.87 42.6202H153.51L157.58 53.3802H161.02L150.79 25.2102ZM141.77 40.0302L146.68 26.1102H147.66L152.57 40.0302H141.76H141.77Z" fill="white"/>
<path d="M72.8601 24.8H69.51V53.3801H72.8601V24.8Z" fill="white"/>
<path d="M24.75 24.8C21.48 24.75 18.94 25.9801 17.04 28.5201V28.5301C16.93 28.6801 16.82 28.8401 16.71 29.0001C16.48 29.3501 16.24 29.6901 16.01 30.0401L0 53.3801H8.83008L23.22 32.05H29.0901V46.1101H16.3401V53.3901H24.48C26.08 51.0201 27.67 48.66 29.26 46.3H35.9199V24.8301C32.1099 24.8301 28.43 24.8801 24.75 24.8201V24.8Z" fill="white"/>
<path d="M63.48 61.9613V57.3213H63.6899V61.7812H66.3501V61.9613H63.48Z" fill="white"/>
<path d="M66.98 61.9613V57.3213H69.97V57.5013H67.1899V59.4012H69.74V59.5813H67.1899V61.7812H70.03V61.9613H66.98Z" fill="white"/>
<path d="M71.8601 61.9613V57.5013H70.2V57.3213H73.72V57.5013H72.0601V61.9613H71.8501H71.8601Z" fill="white"/>
<path d="M74.1599 58.1993C74.3199 58.1388 74.3501 57.9874 74.3501 57.6846H74.1599V57.3213H74.52V57.6846C74.52 58.0278 74.4999 58.2599 74.1599 58.3811V58.1993Z" fill="white"/>
<path d="M75.01 60.4607H75.23C75.29 61.3607 75.9101 61.8407 76.8801 61.8407C77.7801 61.8407 78.21 61.3307 78.22 60.7407C78.22 59.9507 77.6801 59.7507 76.6101 59.5607C75.7201 59.4007 75.1899 59.1207 75.1899 58.3707C75.1899 57.6207 75.8299 57.2507 76.6699 57.2507C77.5899 57.2507 78.2 57.7207 78.26 58.5607H78.04C77.98 57.8707 77.5499 57.4307 76.6699 57.4307C75.9099 57.4307 75.4099 57.7807 75.4099 58.3707C75.4099 59.1007 75.9501 59.2507 76.8301 59.4207C77.9001 59.6207 78.4299 59.9207 78.4299 60.7507C78.4299 61.4607 77.8701 62.0406 76.8701 62.0406C75.8701 62.0406 75.06 61.5307 75 60.4707L75.01 60.4607Z" fill="white"/>
<path d="M80.6899 61.9613V57.3213H80.8999V59.4012H83.8701V57.3213H84.0801V61.9613H83.8701V59.5813H80.8999V61.9613H80.6899Z" fill="white"/>
<path d="M85.1001 60.3413V57.3113H85.3101V60.3413C85.3101 61.3513 85.79 61.8413 86.77 61.8413C87.75 61.8413 88.23 61.3513 88.23 60.3413V57.3113H88.4399V60.3413C88.4399 61.4213 87.93 62.0212 86.77 62.0212C85.61 62.0212 85.1001 61.4213 85.1001 60.3413Z" fill="white"/>
<path d="M89.47 61.9613V57.3213H89.78L91.6201 61.6813H91.6301L93.47 57.3213H93.78V61.9613H93.5701V57.6213H93.5601L91.74 61.9613H91.52L89.7 57.6213H89.6899V61.9613H89.48H89.47Z" fill="white"/>
<path d="M94.3899 61.9613L96.1699 57.3213H96.4099L98.22 61.9613H97.99L97.3899 60.3813H95.21L94.6101 61.9613H94.3999H94.3899ZM95.27 60.2013H97.3201L96.3 57.5613H96.29L95.28 60.2013H95.27Z" fill="white"/>
<path d="M98.8201 61.9613V57.3213H99.0801L102.04 61.6813H102.05V57.3213H102.26V61.9613H102L99.04 57.6113H99.03V61.9613H98.8201Z" fill="white"/>
<path d="M104.82 61.9613V57.3213H106.48C107.82 57.3213 108.4 58.3713 108.4 59.6613C108.4 60.9513 107.78 61.9613 106.44 61.9613H104.82ZM106.43 61.7712C107.55 61.7712 108.18 60.9612 108.18 59.6512C108.18 58.3412 107.6 57.4913 106.48 57.4913H105.03V61.7712H106.43Z" fill="white"/>
<path d="M108.98 59.6307C108.98 58.2307 109.84 57.2407 111.12 57.2407C112.4 57.2407 113.26 58.2307 113.26 59.6307C113.26 61.0307 112.4 62.0306 111.12 62.0306C109.84 62.0306 108.98 61.0307 108.98 59.6307ZM113.03 59.6307C113.03 58.3107 112.21 57.4207 111.11 57.4207C110.01 57.4207 109.19 58.3007 109.19 59.6307C109.19 60.9607 110.01 61.8407 111.11 61.8407C112.21 61.8407 113.03 60.9507 113.03 59.6307Z" fill="white"/>
<path d="M115.45 61.9613V57.3213H115.92V59.3313H118.55V57.3213H119.02V61.9613H118.55V59.7413H115.92V61.9613H115.45Z" fill="white"/>
<path d="M119.99 60.3914V57.3113H120.46V60.3914C120.46 61.2214 120.88 61.6213 121.73 61.6213C122.58 61.6213 123 61.2214 123 60.3914V57.3113H123.47V60.3914C123.47 61.3814 122.94 62.0413 121.72 62.0413C120.5 62.0413 119.97 61.3814 119.97 60.3914H119.99Z" fill="white"/>
<path d="M124.43 61.9613V57.3213H125.09L126.66 61.3313H126.67L128.24 57.3213H128.9V61.9613H128.43V57.9913H128.42L126.89 61.9613H126.46L124.93 57.9913H124.92V61.9613H124.45H124.43Z" fill="white"/>
<path d="M129.45 61.9613L131.18 57.3213H131.71L133.46 61.9613H132.95L132.48 60.6713H130.4L129.93 61.9613H129.44H129.45ZM130.56 60.2513H132.34L131.46 57.7614H131.45L130.57 60.2513H130.56Z" fill="white"/>
<path d="M134.01 61.9613V57.3213H134.59L137.1 61.2913H137.11V57.3213H137.58V61.9613H137L134.49 57.9913H134.48V61.9613H134.01Z" fill="white"/>
<path d="M140.99 61.9613V57.7313H139.41V57.3113H143.04V57.7313H141.46V61.9613H140.99Z" fill="white"/>
<path d="M143.62 61.9613V57.3213H144.09V59.3313H146.72V57.3213H147.19V61.9613H146.72V59.7413H144.09V61.9613H143.62Z" fill="white"/>
<path d="M148.19 61.9613V57.3213H148.66V61.9613H148.19Z" fill="white"/>
<path d="M149.65 61.9613V57.3213H150.23L152.74 61.2913H152.75V57.3213H153.22V61.9613H152.64L150.13 57.9913H150.12V61.9613H149.65Z" fill="white"/>
<path d="M153.99 59.6405C153.99 58.2605 154.83 57.2305 156.15 57.2305C157.26 57.2305 157.9 57.8104 158.06 58.6904H157.57C157.43 58.0104 156.89 57.6405 156.15 57.6405C154.99 57.6405 154.49 58.6705 154.49 59.6305C154.49 60.5905 154.89 61.6205 156.09 61.6205C156.99 61.6205 157.66 60.9605 157.66 59.9905H156.12V59.5704H158.13V61.9504H157.81L157.67 61.1305H157.66C157.37 61.6805 156.89 62.0404 156.09 62.0404C154.73 62.0404 153.99 61.0205 153.99 59.6405Z" fill="white"/>
<path d="M158.63 60.4207H159.12C159.19 61.1407 159.63 61.6307 160.59 61.6307C161.45 61.6307 161.74 61.2207 161.74 60.7107C161.74 60.0207 161.27 59.9007 160.31 59.6907C159.55 59.5107 158.82 59.2807 158.82 58.4307C158.82 57.6907 159.41 57.2407 160.37 57.2407C161.38 57.2407 162.01 57.7506 162.08 58.6606H161.59C161.51 58.0206 161.15 57.6506 160.37 57.6506C159.69 57.6506 159.32 57.9306 159.32 58.4106C159.32 59.0306 159.87 59.1607 160.55 59.3107C161.5 59.5207 162.24 59.7507 162.24 60.6907C162.24 61.4407 161.72 62.0406 160.62 62.0406C159.52 62.0406 158.7 61.4607 158.63 60.4207Z" fill="white"/>
<path d="M162.77 58.7701C162.77 57.8701 163.45 57.2002 164.31 57.2002C165.17 57.2002 165.85 57.8701 165.85 58.7701C165.85 59.6701 165.17 60.3402 164.31 60.3402C163.45 60.3402 162.77 59.6801 162.77 58.7701ZM165.6 58.7701C165.6 57.9901 165.03 57.4302 164.31 57.4302C163.59 57.4302 163.02 57.9901 163.02 58.7701C163.02 59.5501 163.6 60.1102 164.31 60.1102C165.02 60.1102 165.6 59.5601 165.6 58.7701ZM163.69 59.6202V57.9001H164.38C164.77 57.9001 164.98 58.0801 164.98 58.4001C164.98 58.6301 164.84 58.7802 164.6 58.8302C165.03 58.9202 164.89 59.5602 165.01 59.6002V59.6202H164.66C164.54 59.5302 164.71 58.9702 164.28 58.9702H164.03V59.6202H163.69ZM164.3 58.6902C164.51 58.6902 164.65 58.6402 164.65 58.4302C164.65 58.2202 164.5 58.1902 164.31 58.1902H164.04V58.6902H164.31H164.3Z" fill="white"/>
<path d="M41.3401 13.34V0H46.8999C49.4199 0 51.27 1.18003 51.27 3.97003C51.27 6.76003 49.4199 7.92999 46.8999 7.92999H43.3899V13.34H41.3401ZM46.8 6.15002C48.35 6.15002 49.1301 5.46003 49.1301 3.97003C49.1301 2.48003 48.35 1.77002 46.8 1.77002H43.3899V6.16003H46.8V6.15002Z" fill="white"/>
<path d="M51.71 8.58002C51.71 5.61002 53.5 3.52002 56.49 3.52002C59.48 3.52002 61.23 5.59 61.23 8.56C61.23 11.53 59.44 13.62 56.47 13.62C53.5 13.62 51.71 11.57 51.71 8.58002ZM59.3201 8.58002C59.3201 6.58002 58.42 5.04999 56.48 5.04999C54.54 5.04999 53.6101 6.58002 53.6101 8.58002C53.6101 10.58 54.51 12.11 56.48 12.11C58.45 12.11 59.3201 10.56 59.3201 8.58002Z" fill="white"/>
<path d="M64.6201 13.3401L61.6699 3.82007H63.6499L65.6699 11.1901H65.71L67.6899 3.82007H69.54L71.52 11.1901H71.5601L73.5901 3.82007H75.49L72.54 13.3401H70.6599L68.6101 6.01007H68.5701L66.52 13.3401H64.6399H64.6201Z" fill="white"/>
<path d="M85.1499 9.06024H77.8301C77.8701 10.6502 78.7999 12.1202 80.6899 12.1202C82.3699 12.1202 83.0199 11.0403 83.1899 10.4003H85.0601C84.5601 12.2303 83.1599 13.6103 80.6599 13.6103C77.6399 13.6103 75.96 11.4602 75.96 8.55023C75.96 5.64023 77.7499 3.51025 80.6599 3.51025C83.5699 3.51025 85.1799 5.41029 85.1799 8.36029C85.1799 8.62029 85.1799 8.90023 85.1599 9.05023L85.1499 9.06024ZM83.26 7.63025C83.26 6.14025 82.2201 5.02026 80.5901 5.02026C79.0601 5.02026 77.9401 6.06025 77.8301 7.63025H83.26Z" fill="white"/>
<path d="M92.01 3.65009V5.40008C91.79 5.36008 91.6199 5.34009 91.3899 5.34009C89.7299 5.34009 88.53 6.59008 88.53 8.40008V13.3301H86.7V3.81006H88.53V5.62006H88.5701C89.0701 4.43006 89.8401 3.59009 91.1301 3.59009C91.4701 3.59009 91.73 3.61009 92.01 3.65009Z" fill="white"/>
<path d="M101.53 9.06024H94.21C94.25 10.6502 95.1801 12.1202 97.0701 12.1202C98.7501 12.1202 99.4001 11.0403 99.5701 10.4003H101.44C100.94 12.2303 99.54 13.6103 97.04 13.6103C94.02 13.6103 92.3401 11.4602 92.3401 8.55023C92.3401 5.64023 94.13 3.51025 97.04 3.51025C99.95 3.51025 101.56 5.41029 101.56 8.36029C101.56 8.62029 101.56 8.90023 101.54 9.05023L101.53 9.06024ZM99.6399 7.63025C99.6399 6.14025 98.6 5.02026 96.97 5.02026C95.44 5.02026 94.32 6.06025 94.21 7.63025H99.6399Z" fill="white"/>
<path d="M109.85 0H111.68V13.34H109.85V12.22H109.81C109.29 12.89 108.37 13.6 106.88 13.6C104.45 13.6 102.61 11.72 102.61 8.58002C102.61 5.44002 104.46 3.54004 106.88 3.54004C108.37 3.54004 109.29 4.23004 109.81 4.98004H109.85V0ZM109.83 8.58002C109.83 6.42002 108.82 5.07001 107.18 5.07001C105.39 5.07001 104.51 6.71002 104.51 8.58002C104.51 10.45 105.39 12.09 107.18 12.09C108.82 12.09 109.83 10.73 109.83 8.58002Z" fill="white"/>
<path d="M126.7 8.58002C126.7 11.72 124.85 13.6 122.43 13.6C120.94 13.6 120.02 12.93 119.5 12.16H119.46V13.34H117.63V0H119.46V4.95001H119.5C120.02 4.28001 120.94 3.54999 122.43 3.54999C124.86 3.54999 126.7 5.45003 126.7 8.59003V8.58002ZM124.77 8.58002C124.77 6.71002 123.91 5.07001 122.12 5.07001C120.48 5.07001 119.47 6.41002 119.47 8.58002C119.47 10.75 120.48 12.09 122.12 12.09C123.91 12.09 124.77 10.45 124.77 8.58002Z" fill="white"/>
<path d="M128.06 16.55V15.0601C128.38 15.1001 128.55 15.1201 128.84 15.1201C129.57 15.1201 130.43 14.7501 130.8 13.2501L126.96 3.83008H128.96L131.74 11.1101H131.78L134.39 3.83008H136.31L132.54 13.5701C131.63 15.9201 130.71 16.6901 129.24 16.6901C128.83 16.6901 128.55 16.6501 128.06 16.5601V16.55Z" fill="white"/>
</svg>
