<svg width="266" height="46" viewBox="0 0 266 46" fill="none" xmlns="http://www.w3.org/2000/svg">
<path d="M224.63 3.00001V16.13C226.95 16.2 229.24 16.13 231.54 16.17C232.04 16.99 232.52 17.77 233.07 18.67H198.04V16.21H211.23C211.33 15.08 211.27 14.03 211.28 12.97C211.28 11.93 211.28 10.89 211.28 9.84001C211.28 8.77001 211.28 7.70001 211.28 6.63001V0.26001H238.32C247.44 15.34 256.61 30.47 265.82 45.7H251.02C242.29 31.46 233.54 17.19 224.8 2.92001C224.74 2.94001 224.68 2.96001 224.63 2.98001V3.00001Z" fill="white"/>
<path d="M182.15 0.27002H195.34V44.71H182.15V0.27002Z" fill="white"/>
<path d="M237.46 25.8201C238.02 26.7401 238.58 27.6701 239.22 28.7201H224.62V45.6901H211.33V28.7201H198.07C197.96 27.7301 198.02 26.8101 198.01 25.8201H237.44H237.46Z" fill="white"/>
<path d="M122.47 20.0699C122.26 19.7899 121.89 19.8499 121.6 19.5199C121.64 18.5499 122.63 17.9799 122.9 17.0099C122.9 16.7999 122.69 16.6799 122.51 16.5699C120.76 15.5299 120.49 12.6199 121.62 10.9199C122.5 9.59992 123.76 8.98992 125.29 8.95992C127.34 8.91992 129.4 8.95992 131.45 8.95992C131.61 8.95992 131.78 8.95992 131.96 9.16992C131.92 9.71992 131.87 10.3299 131.83 10.9199C131.3 11.1899 130.79 10.9499 130.2 11.1099C131.11 12.7799 131.18 14.4099 129.98 15.9299C128.78 17.4499 127.08 17.6399 125.34 17.4899C125.07 17.6799 124.94 17.9099 124.81 18.2099C125.5 18.5599 126.26 18.6399 126.98 18.8399C127.61 19.0199 128.26 19.1499 128.88 19.3499C130.54 19.8999 131.62 20.9699 131.65 22.7899C131.68 24.4899 130.79 25.6699 129.34 26.4799C128.61 26.8899 127.79 27.0399 126.98 27.1199C125.44 27.2799 123.95 27.1099 122.53 26.3699C120.44 25.2899 120.09 22.4899 121.65 20.8399C121.91 20.5599 122.2 20.3199 122.47 20.0599V20.0699ZM124.61 20.7799C124.13 21.1899 123.8 21.5899 123.56 22.0499C122.92 23.2399 123.46 24.5999 124.73 25.0599C125.53 25.3499 126.35 25.3299 127.16 25.1899C128.11 25.0199 128.73 24.3199 128.8 23.4999C128.88 22.5499 128.6 22.1299 127.53 21.6499C126.6 21.2299 125.58 21.1299 124.62 20.7799H124.61ZM128.12 13.3199C128.12 13.1599 128.13 12.9899 128.12 12.8299C127.96 11.2299 126.6 10.3799 125.11 10.9499C123.92 11.3999 123.45 12.5699 123.74 14.0199C123.87 14.6299 124.19 15.1199 124.77 15.4299C126.46 16.3399 128.14 15.2899 128.12 13.3299V13.3199Z" fill="white"/>
<path d="M13.3301 21.2701C12.3001 21.4701 11.2999 21.4601 10.1899 21.3501C10.1899 18.6801 10.44 16.0701 10.28 13.5201H3.09009C2.97009 16.1301 3.07995 18.6701 3.19995 21.1701C2.43995 21.4301 0.990088 21.5001 0.0900879 21.3201C0.0900879 15.8201 0.21 10.3201 0 4.84006C0.84 4.58006 2.64993 4.56006 3.17993 4.80006C3.08993 6.85006 3.06007 8.92006 3.07007 10.9801C3.73007 11.3201 9.41002 11.3701 10.27 11.0501C10.42 8.99006 10.1599 6.91006 10.1699 4.76006C11.1599 4.55006 12.14 4.76006 13.03 4.56006C13.37 4.91006 13.26 5.26006 13.26 5.57006C13.26 10.0101 13.17 14.4501 13.27 18.9001C13.29 19.6601 13.5401 20.4101 13.3301 21.2701Z" fill="white"/>
<path d="M97.8301 4.67005C99.1501 4.70005 100.36 4.44005 101.63 4.60005C102.49 7.39005 103.36 10.14 104.2 12.91C105.04 15.66 106.04 18.3701 106.78 21.2401C105.61 21.3401 104.6 21.5601 103.53 21.2801C103.06 19.6501 102.6 18.02 102.13 16.4H96.6299C96.1499 18.03 95.68 19.6201 95.21 21.2301C94.24 21.3401 93.3 21.5401 92.27 21.2301C94.1 15.71 96.0601 10.28 97.8301 4.69004V4.67005ZM99.6101 7.33005C99.5401 7.33005 99.4799 7.33005 99.4099 7.33005C98.7099 9.57005 98.02 11.8201 97.3 14.1401H101.54C100.89 11.8201 100.25 9.58005 99.6101 7.33005Z" fill="white"/>
<path d="M198 23.5099V20.9399H234.46C234.94 21.7299 235.45 22.5599 236.02 23.5099H198Z" fill="white"/>
<path d="M39.8401 9.44999C40.6901 8.87999 41.72 9.04999 42.55 8.80999C42.94 9.01999 42.8 9.32999 42.95 9.55999C43.49 9.35999 43.96 9.02999 44.52 8.86999C47.43 8.04999 50.26 9.54 51.05 12.82C51.58 15.01 51.1601 17.08 49.8201 18.89C49.0601 19.92 47.97 20.57 46.73 20.95C45.54 21.31 44.33 21.39 43 21.32C42.96 23.17 43.0101 24.99 43.0901 26.92C42.0801 27.1 41.0701 27.14 40.1001 26.95C40.0701 21.09 40.2801 15.35 39.8401 9.44999ZM42.8999 19.25C43.3999 19.35 43.82 19.34 44.22 19.3C46.02 19.13 47.36 18.3 48.04 16.57C48.44 15.54 48.44 14.47 48.22 13.43C47.94 12.15 47.2001 11.17 45.8101 10.96C44.7401 10.8 43.7699 11.17 42.8999 11.85V19.25Z" fill="white"/>
<path d="M162.36 15.6299H154.4C154.01 17.2699 155.3 18.8199 156.34 19.1799C157.99 19.7499 159.51 19.4699 160.94 18.5299C161.22 18.3499 161.46 17.9999 161.96 18.2899C161.9 19.0399 161.83 19.8099 161.76 20.5799C161.01 21.1599 160.15 21.3899 159.3 21.5099C157.39 21.7899 155.54 21.6899 153.84 20.5899C152.53 19.7399 151.85 18.4799 151.54 17.0299C151.21 15.5099 151.34 13.9999 151.79 12.4999C152.65 9.65993 155.4 8.38992 157.94 8.69992C160.74 9.03992 162.08 11.0599 162.33 13.3599C162.41 14.0699 162.51 14.7699 162.35 15.6299H162.36ZM159.65 13.5099C159.61 11.6999 158.49 10.5199 156.99 10.6199C155.47 10.7199 154.24 12.0599 154.37 13.5099H159.65Z" fill="white"/>
<path d="M143.97 15.6301H136.13C135.88 15.9301 135.87 16.1501 135.91 16.4201C136.2 18.2901 137.45 19.4001 139.39 19.4701C140.54 19.5101 141.6 19.1801 142.55 18.5201C142.77 18.3701 143 18.2201 143.32 18.0101C143.83 18.8801 143.42 19.7101 143.4 20.4401C143.17 20.9201 142.75 20.9701 142.4 21.1001C140.25 21.8501 138.11 21.9201 136.02 20.9201C134.42 20.1501 133.52 18.8101 133.22 17.1001C132.92 15.3601 132.96 13.6701 133.65 11.9601C134.69 9.38008 137.57 8.41008 139.76 8.73008C141.86 9.03008 143.35 10.4701 143.81 12.5701C144.02 13.5401 144.13 14.5001 143.98 15.6401L143.97 15.6301ZM141.22 13.4301C141.44 12.0001 140.3 10.7001 138.89 10.6401C137.27 10.5701 135.99 11.7701 135.93 13.4601C136.75 13.6001 140.63 13.5801 141.22 13.4301Z" fill="white"/>
<path d="M15.76 14.9901C15.72 13.7701 15.91 12.6001 16.52 11.5101C17.3 10.1101 18.46 9.2501 20.01 8.8701C21.49 8.5101 22.9501 8.56011 24.3601 9.13011C25.7601 9.70011 26.7099 10.7601 27.1499 12.1801C27.7199 14.0501 27.7799 15.9601 27.1899 17.8401C26.5599 19.8501 25.2301 21.1601 23.0901 21.4901C21.4901 21.7401 19.9099 21.6901 18.4599 20.8401C16.6299 19.7801 15.96 18.0401 15.77 16.0401C15.74 15.6901 15.77 15.3301 15.77 14.9701L15.76 14.9901ZM18.6599 15.0501C18.6599 15.9501 18.63 16.8501 19 17.7101C19.51 18.9101 20.4 19.4901 21.74 19.5301C23.08 19.5701 24.0701 18.6901 24.3501 17.6801C24.8401 15.9101 24.8799 14.1201 24.1999 12.3701C23.7899 11.3101 22.9801 10.7901 21.8501 10.7601C20.6601 10.7301 19.7399 11.1601 19.1499 12.2501C18.6699 13.1401 18.6499 14.0801 18.6599 15.0401V15.0501Z" fill="white"/>
<path d="M75.86 21.2401C74.99 21.4401 74.15 21.4201 73.35 21.4201C73.07 21.3001 73.0599 21.0601 73.0099 20.9001C72.8499 20.8001 72.7499 20.8801 72.6699 20.9301C71.3999 21.7001 70.0398 21.8001 68.6398 21.4401C67.1198 21.0501 65.9899 19.5901 65.9299 18.0201C65.8899 16.9001 66 15.8301 66.81 14.9601C67.56 14.1601 68.53 13.7201 69.56 13.4201C70.53 13.1401 71.53 12.9901 72.54 12.8901C72.68 12.8801 72.8099 12.8701 72.9199 12.7601C73.1699 11.6901 72.63 10.9501 71.53 10.8801C70.39 10.8001 69.2999 10.9601 68.2499 11.4501C67.9699 11.5801 67.69 11.8201 67.29 11.6001C67.21 10.9501 67.22 10.2801 67.33 9.55006C69.33 8.77006 71.3399 8.29007 73.4699 8.95007C74.8999 9.39007 75.6699 10.4201 75.7599 11.9101C75.7899 12.4301 75.79 12.9501 75.79 13.4701C75.79 15.7401 75.7499 18.0101 75.9099 20.2801C75.9299 20.5801 75.97 20.8801 75.86 21.2401ZM73.09 14.9101C72.09 14.9401 71.17 15.1701 70.27 15.4701C69.95 15.5701 69.6598 15.7201 69.3998 15.9201C68.7298 16.4301 68.5999 17.1301 68.7299 17.9101C68.8499 18.6601 69.32 19.1101 70.03 19.3201C71.22 19.6701 72.19 19.1801 73.08 18.5501V14.9101H73.09Z" fill="white"/>
<path d="M115.8 21.2999C115.8 18.8799 115.8 16.5499 115.8 14.2299C115.8 13.7399 115.8 13.2499 115.68 12.7599C115.34 11.3699 114.47 10.7999 113.06 11.1199C112.28 11.2999 111.59 11.6899 110.9 12.2499C110.68 15.1999 110.98 18.1899 110.99 21.2299C110 21.3499 109.09 21.4999 108.05 21.3599C108.04 17.3999 108.15 13.4499 107.77 9.4699C108.64 8.9799 109.61 9.08989 110.44 8.78989C110.74 9.01656 110.903 9.33323 110.93 9.7399C111.2 9.9199 111.4 9.6899 111.59 9.5799C112.69 8.9499 113.87 8.7099 115.14 8.7699C117.09 8.8499 118.41 10.0999 118.55 12.0599C118.55 12.1699 118.55 12.2799 118.55 12.3899C118.51 15.0499 118.66 17.6999 118.71 20.3499C118.71 20.6499 118.76 20.9499 118.63 21.2699C117.71 21.3499 116.8 21.5899 115.8 21.3199V21.2999Z" fill="white"/>
<path d="M164.32 18.28C164.96 18.74 165.56 19.08 166.21 19.28C167.15 19.58 168.08 19.61 169 19.18C169.58 18.91 169.97 18.4 169.93 17.86C169.88 17.25 169.51 16.87 168.96 16.66C168.17 16.37 167.36 16.11 166.57 15.82C165.35 15.38 164.3 14.78 163.91 13.39C163.47 11.81 164.07 10.2 165.5 9.39002C166.72 8.69002 168.04 8.56001 169.4 8.69001C170.07 8.75001 170.76 8.82002 171.41 9.07002C171.69 9.18002 171.99 9.24002 172.2 9.57002C172.2 10.25 172.26 10.98 171.95 11.69C171.53 11.72 171.25 11.47 170.94 11.32C170.08 10.91 169.21 10.74 168.25 10.86C167.6 10.94 167.1 11.18 166.71 11.71C166.6 11.95 166.6 12.22 166.65 12.5C167.16 13.33 168.08 13.45 168.89 13.72C169.59 13.95 170.29 14.17 170.96 14.49C173.36 15.62 173.53 19.03 171.36 20.62C170.73 21.09 170.05 21.39 169.27 21.5C167.7 21.73 166.16 21.65 164.66 21.14C164.48 21.08 164.3 21 164.13 20.91C164.06 20.87 164.01 20.81 163.88 20.69C163.97 19.93 163.77 19.07 164.34 18.27L164.32 18.28Z" fill="white"/>
<path d="M37.5701 9.60001C37.3101 10.22 37.64 11.03 37.23 11.67C36.83 11.73 36.6299 11.52 36.3899 11.4C35.3099 10.83 34.17 10.64 32.98 10.95C32.41 11.1 31.9999 11.46 31.8899 12.06C31.7999 12.51 32.1101 12.91 32.7601 13.21C33.4301 13.52 34.1502 13.72 34.8502 13.93C35.9202 14.24 36.9301 14.7 37.5701 15.65C38.6601 17.28 38.29 19.79 36.18 20.94C34.66 21.77 33.0199 21.76 31.3799 21.5C30.6699 21.39 29.9 21.33 29.24 20.81C29.25 20.02 29.11 19.19 29.4 18.45C29.74 18.34 29.8801 18.48 30.0401 18.58C31.0101 19.18 32.05 19.58 33.22 19.49C33.78 19.45 34.29 19.27 34.72 18.92C35.44 18.33 35.3902 17.34 34.6002 16.87C33.7702 16.37 32.82 16.18 31.92 15.86C31.16 15.59 30.46 15.24 29.9 14.65C28.64 13.34 28.8 10.94 30.24 9.81001C31.6 8.74001 33.1801 8.56002 34.8301 8.71002C35.5001 8.77002 36.1901 8.89002 36.8301 9.14002C37.0801 9.24002 37.3601 9.28001 37.5801 9.62001L37.5701 9.60001Z" fill="white"/>
<path d="M59.54 11.32C58.96 11.11 58.4499 11.34 57.9399 11.15C57.8099 10.49 57.8599 9.82002 57.9099 9.19002C58.3899 8.75002 58.9699 9.14003 59.4799 8.85003C59.6599 7.98003 59.45 7.08003 59.56 6.08003C60.47 5.87003 61.3298 5.37002 62.3898 5.50002C62.5798 6.63002 62.31 7.75003 62.51 8.88002C63.35 9.09002 64.18 8.85002 65.02 9.02002V11.02C64.21 11.43 63.33 11.02 62.54 11.28C62.2 12.52 62.36 18.37 62.77 19.1C63.39 19.34 64.0299 19.22 64.7299 19.08C65.3899 19.74 64.6899 20.46 64.9099 21.03C64.7799 21.18 64.7499 21.25 64.7099 21.26C63.4199 21.58 62.1298 21.69 60.8798 21.08C60.1598 20.72 59.7799 20.12 59.6799 19.33C59.5799 18.6 59.54 17.86 59.54 17.12C59.55 15.21 59.54 13.29 59.54 11.35V11.32Z" fill="white"/>
<path d="M172.33 32.1701C172.46 35.5001 172.58 38.6901 172.7 41.9101C172.14 42.0301 171.65 41.9901 171.1 41.9501C170.91 39.3701 170.91 36.8101 170.76 34.2001C170.37 35.4701 169.98 36.7301 169.58 38.0001C169.17 39.3001 168.76 40.6001 168.33 41.9301C167.74 42.0201 167.17 41.9701 166.54 41.9601C165.81 39.4601 165.08 36.9701 164.35 34.4801C164.29 34.4801 164.22 34.5001 164.16 34.5101C164.16 36.9601 163.89 39.3901 163.98 41.8601C163.47 42.0501 162.99 41.9801 162.45 41.9201C162.67 38.6701 162.83 35.4601 162.92 32.2101C163.72 32.0901 164.48 32.1701 165.28 32.1501C166.02 34.8501 166.74 37.5101 167.47 40.1601C167.52 40.1601 167.57 40.1801 167.61 40.1801C168.42 37.5301 169.23 34.8801 170.05 32.2201C170.82 32.0701 171.54 32.1701 172.33 32.1501V32.1701Z" fill="white"/>
<path d="M81.6899 21.2501C80.6499 21.4401 79.6799 21.4701 78.6399 21.3701C78.7899 15.3001 78.9 9.29008 78.55 3.27008C78.93 2.91008 80.6499 2.53008 81.6799 2.62008C81.4899 8.80008 81.4299 15.0001 81.6899 21.2501Z" fill="white"/>
<path d="M149.16 21.24C148.11 21.37 147.2 21.51 146.21 21.34C146.17 15.26 146.43 9.21003 146.04 3.12004C147.04 2.82004 148.01 2.61004 149.13 2.54004C148.94 8.80004 148.91 15 149.16 21.25V21.24Z" fill="white"/>
<path d="M118.68 37.3801C117.21 37.1401 115.78 37.2601 114.29 37.3801V41.8401C113.72 42.0701 113.18 41.9401 112.54 41.9501C112.5 38.7101 112.83 35.5001 112.45 32.2801C113.08 32.0601 113.61 32.1601 114.21 32.1801C114.34 33.4501 114.18 34.7001 114.28 36.0601C115.7 36.1001 117.1 36.1201 118.57 36.0401C118.69 34.7301 118.59 33.5101 118.62 32.2501C119.17 32.0901 119.7 32.1401 120.35 32.1901C120.23 35.4201 120.26 38.6401 120.38 41.8701C119.79 42.0301 119.26 41.9501 118.68 41.9501C118.46 40.4101 118.87 38.9401 118.66 37.3701L118.68 37.3801Z" fill="white"/>
<path d="M82.3999 41.9501C81.7599 41.9501 81.22 42.0801 80.71 41.8501V37.3101C79.97 37.1901 79.23 37.1901 78.51 37.2801C77.8 37.3601 77.09 37.2501 76.28 37.4101C76.16 38.8801 76.33 40.3801 76.25 41.9001C75.69 42.0401 75.1601 41.9701 74.5601 41.9501C74.6601 38.7001 74.7 35.4901 74.54 32.2501C75.09 32.1101 75.63 32.1501 76.26 32.2001V36.0201H80.5801C80.9301 34.8001 80.6099 33.5301 80.6199 32.2401C81.1899 32.1301 81.7001 32.1501 82.3201 32.1901C82.3501 35.4101 82.2599 38.6201 82.3899 41.9501H82.3999Z" fill="white"/>
<path d="M53.3799 9.34003C54.4599 9.12003 55.42 8.79002 56.52 8.90002C56.46 13.07 56.46 17.14 56.51 21.23C55.5 21.43 54.56 21.46 53.48 21.37C53.63 17.37 53.7099 13.41 53.3799 9.34003Z" fill="white"/>
<path d="M99.57 41.9399H97.9399C97.6499 41.4999 97.6499 40.9499 97.4299 40.4899C97.2199 40.0299 97.33 39.4299 96.84 39.0899H93.79C93.22 39.9599 93.19 40.9799 92.81 41.8999C92.34 41.9999 91.8498 41.97 91.3698 41.96C91.3298 41.45 93.99 33.26 94.53 32.2H96.54C96.81 32.68 99.54 41.3699 99.58 41.9399H99.57ZM96.7199 37.8599C96.2299 36.4099 95.9998 34.98 95.3698 33.67C94.9198 35.07 94.36 36.3999 94.05 37.8599H96.7199Z" fill="white"/>
<path d="M155.11 32.21H161.07C161.25 32.56 161.09 32.94 161.11 33.42H156.93C156.79 34.39 156.87 35.26 156.82 36.26C158.14 36.32 159.4 36.29 160.66 36.17C160.88 36.65 160.83 37.06 160.66 37.53C159.41 37.67 158.16 37.47 156.88 37.62V40.69C158.28 40.82 159.7 40.65 161.12 40.74C161.22 41.17 161.16 41.54 161.12 41.93H155.18C155.33 38.69 155.3 35.51 155.12 32.21H155.11Z" fill="white"/>
<path d="M86.3699 33.48V36.25C87.6399 36.32 88.8899 36.3 90.1599 36.15C90.3399 36.62 90.26 37.04 90.22 37.53H86.3799V40.71C87.7699 40.75 89.1701 40.74 90.5901 40.65C90.8401 41.06 90.6799 41.45 90.6899 41.9H84.6799C84.8099 38.7 84.7899 35.49 84.6799 32.21H90.6399C90.8499 32.67 90.5501 33.05 90.5601 33.47H86.3699V33.48Z" fill="white"/>
<path d="M140.72 41.3201C140.77 40.9201 140.82 40.5201 140.87 40.1401C141.14 39.9801 141.31 40.1401 141.5 40.2501C142.26 40.6901 143.07 40.8501 143.94 40.7501C144.65 40.6701 145.28 40.1901 145.39 39.6201C145.51 39.0001 145.26 38.4701 144.56 38.0901C144.06 37.8201 143.52 37.6201 142.99 37.3901C142.81 37.3101 142.64 37.2301 142.47 37.1501C141.1 36.4701 140.61 35.5901 140.8 34.2001C140.95 33.1201 141.78 32.2801 143.1 32.0701C144.29 31.8901 145.5 31.9301 146.64 32.4601C146.71 32.9401 146.68 33.3801 146.55 33.9001C145.9 33.7401 145.4 33.3901 144.8 33.3201C144.19 33.2501 143.6 33.2501 143.04 33.5601C142.16 34.0401 142.12 34.9401 142.94 35.5101C143.53 35.9301 144.25 36.0601 144.87 36.4001C145.13 36.5401 145.42 36.6501 145.68 36.8001C146.63 37.3401 147.2 38.0801 147.15 39.2401C147.1 40.3601 146.62 41.2101 145.61 41.6601C144.06 42.3701 142.48 42.2701 140.94 41.5501C140.85 41.5101 140.78 41.4101 140.69 41.3201H140.72Z" fill="white"/>
<path d="M126.04 41.5001C126.1 40.9801 126.15 40.5501 126.2 40.1301C126.58 40.0101 126.78 40.3001 127.05 40.4101C128.09 40.8701 129.14 41.0801 130.16 40.3901C130.89 39.9001 130.91 38.9501 130.26 38.3501C129.93 38.0501 129.53 37.8901 129.12 37.7301C128.31 37.4001 127.47 37.1201 126.83 36.5001C125.58 35.2901 125.91 33.1701 127.47 32.4201C128.96 31.7101 130.44 31.9701 131.93 32.4201C132.14 32.9301 131.95 33.3701 131.86 33.8801C131.27 33.7401 130.77 33.4701 130.21 33.3601C129.77 33.2701 129.35 33.2501 128.91 33.3501C128.2 33.5001 127.7 33.8401 127.64 34.6801C127.8 35.2401 128.22 35.5901 128.78 35.8201C129.39 36.0701 129.98 36.3401 130.59 36.6001C132 37.2001 132.52 38.0701 132.4 39.6301C132.31 40.7201 131.43 41.6701 130.17 41.9701C128.76 42.3101 127.41 42.0901 126.04 41.5001Z" fill="white"/>
<path d="M132.64 32.22C133.2 32.11 133.74 31.91 134.38 32.07C135.06 33.44 135.75 34.82 136.49 36.31C137.07 35.68 137.28 34.93 137.65 34.3C138.04 33.65 138.32 32.93 138.65 32.24C139.19 32.1 139.7 32.11 140.19 32.19C140.3 32.43 140.16 32.58 140.07 32.74C139.25 34.19 138.43 35.64 137.61 37.09C137.36 37.53 137.26 38 137.26 38.5C137.27 39.62 137.26 40.74 137.26 41.9C136.69 42.01 136.16 41.99 135.55 41.93C135.55 41.38 135.49 40.86 135.56 40.36C135.82 38.58 135.25 37.04 134.32 35.56C133.77 34.68 133.29 33.76 132.79 32.84C132.7 32.68 132.55 32.53 132.62 32.21L132.64 32.22Z" fill="white"/>
<path d="M154.34 32.1899C154.42 32.5899 154.37 32.9299 154.35 33.3099C153.46 33.5199 152.61 33.3099 151.67 33.4599C151.61 36.2599 151.62 39.0599 151.78 41.9099C151.14 41.9999 150.59 41.9899 149.98 41.9099C150.02 39.0999 150.05 36.3199 150.01 33.5099C149.14 33.2599 148.29 33.5099 147.45 33.3699C147.32 32.9599 147.37 32.5999 147.45 32.1799H154.34V32.1899Z" fill="white"/>
<path d="M107.34 41.9499V33.4799C106.52 33.2899 105.67 33.4999 104.82 33.3699C104.7 32.9799 104.74 32.6199 104.8 32.1899H111.62C111.71 32.5799 111.68 32.9499 111.59 33.3799H109.04C109 36.2399 108.99 39.0399 109.09 41.8599C108.53 42.0399 107.99 41.9399 107.34 41.9299V41.9499Z" fill="white"/>
<path d="M100.47 32.2599C101.08 32.0999 101.61 32.1499 102.23 32.1999C102.3 35.0199 102.11 37.8199 102.14 40.6399C103.44 40.8399 104.69 40.5699 105.95 40.6399C106.09 41.0999 106.04 41.4899 105.93 41.9299H100.53C100.51 38.7099 100.59 35.4999 100.48 32.2699L100.47 32.2599Z" fill="white"/>
<path d="M56.46 2.97998C56.76 3.96998 56.5999 4.80998 56.6299 5.75998C55.5799 6.04998 54.55 6.02998 53.47 6.05998V3.40998C54.38 3.01998 55.42 3.28998 56.46 2.97998Z" fill="white"/>
</svg>
